<svg width="25" height="24" viewBox="0 0 25 24" fill="none" xmlns="http://www.w3.org/2000/svg">
<g clip-path="url(#clip0_90_1076)">
<path d="M8.03 21.48C4.76 19.94 2.42 16.76 2.06 13H0.559998C1.07 19.16 6.22 24 12.51 24L13.17 23.97L9.36 20.16L8.03 21.48ZM8.92 14.96C8.73 14.96 8.55 14.93 8.4 14.88C8.24 14.82 8.11 14.75 8 14.64C7.89 14.54 7.8 14.42 7.74 14.27C7.68 14.13 7.65 13.97 7.65 13.8H6.35C6.35 14.16 6.42 14.48 6.56 14.75C6.7 15.02 6.89 15.25 7.12 15.44C7.36 15.62 7.63 15.76 7.94 15.85C8.24 15.95 8.56 16 8.9 16C9.27 16 9.62 15.95 9.93 15.85C10.25 15.75 10.53 15.6 10.76 15.41C10.99 15.22 11.18 14.98 11.31 14.69C11.44 14.4 11.51 14.08 11.51 13.72C11.51 13.53 11.49 13.34 11.44 13.16C11.39 12.98 11.32 12.81 11.21 12.65C11.11 12.49 10.97 12.35 10.81 12.22C10.64 12.09 10.44 11.99 10.2 11.91C10.4 11.82 10.57 11.71 10.72 11.58C10.87 11.45 10.99 11.31 11.09 11.16C11.19 11.01 11.26 10.86 11.31 10.7C11.36 10.54 11.38 10.38 11.38 10.22C11.38 9.86 11.32 9.54 11.2 9.26C11.08 8.98 10.91 8.75 10.69 8.57C10.49 8.38 10.22 8.24 9.92 8.14C9.61 8.05 9.27 8 8.9 8C8.54 8 8.21 8.05 7.9 8.16C7.6 8.27 7.33 8.42 7.11 8.61C6.9 8.8 6.73 9.02 6.6 9.28C6.48 9.54 6.42 9.82 6.42 10.13H7.72C7.72 9.96 7.75 9.81 7.81 9.68C7.87 9.55 7.95 9.43 8.06 9.34C8.17 9.25 8.29 9.17 8.44 9.12C8.59 9.07 8.74 9.04 8.92 9.04C9.32 9.04 9.62 9.14 9.81 9.35C10 9.55 10.1 9.84 10.1 10.21C10.1 10.39 10.07 10.55 10.02 10.7C9.97 10.85 9.88 10.97 9.77 11.07C9.66 11.17 9.52 11.25 9.36 11.31C9.2 11.37 9 11.4 8.78 11.4H8.01V12.43H8.78C9 12.43 9.2 12.45 9.38 12.5C9.56 12.55 9.71 12.63 9.83 12.73C9.95 12.84 10.05 12.97 10.12 13.13C10.19 13.29 10.22 13.48 10.22 13.7C10.22 14.11 10.1 14.42 9.87 14.63C9.64 14.86 9.32 14.96 8.92 14.96ZM17.47 9.04C17.15 8.71 16.77 8.45 16.33 8.27C15.89 8.09 15.4 8 14.86 8H12.5V16H14.8C15.35 16 15.86 15.91 16.31 15.73C16.76 15.55 17.15 15.3 17.47 14.97C17.79 14.64 18.04 14.24 18.21 13.78C18.38 13.31 18.47 12.79 18.47 12.21V11.81C18.47 11.23 18.38 10.71 18.21 10.24C18.04 9.77 17.79 9.37 17.47 9.04ZM17.08 12.2C17.08 12.62 17.03 12.99 16.94 13.33C16.84 13.66 16.7 13.95 16.51 14.18C16.32 14.41 16.08 14.59 15.8 14.71C15.51 14.83 15.18 14.89 14.81 14.89H13.9V9.12H14.87C15.59 9.12 16.14 9.35 16.51 9.81C16.89 10.27 17.08 10.93 17.08 11.8V12.2ZM12.51 0L11.85 0.03L15.66 3.84L16.99 2.51C20.26 4.06 22.6 7.23 22.95 10.99H24.45C23.95 4.84 18.8 0 12.51 0Z" fill="black"/>
</g>
<defs>
<clipPath id="clip0_90_1076">
<rect width="24" height="24" fill="white" transform="translate(0.5)"/>
</clipPath>
</defs>
</svg>
